PathFileType	4	(X/Y/Z)	/Users/itak/Documents/Research/Walk-IL/dataset/trc/00032_00004.trc
DataRate	CameraRate	NumFrames	NumMarkers	Units	OrigDataRate	OrigDataStartFrame	OrigNumFrames
100.000000	100.000000	4	53	mm	100.000000	0	774
Frame#	Time	RPSI			LPSI			L3			STRN			T10			C7			CLAV			RBAK			LBAK			LSHO			LUPA			LAEL			LAOL			LWTS			LWPS			LFRA			LIFD			LHPS			LHTS			RSHO			RUPA			RAEL			RAOL			RWTS			RWPS			RFRA			RIFD			RHTS			RHPS			RBHD			LFHD			RFHD			LBHD			LHIP			RHIP			RASI			LASI			LKNE			LTHI			LANK			LTIP			LTOE			LMT1			LMT5			LHEE			RKNE			RTHI			RANK			RTIP			RTOE			RMT1			RMT5			RHEE			
		X1	Y1	Z1	X2	Y2	Z2	X3	Y3	Z3	X4	Y4	Z4	X5	Y5	Z5	X6	Y6	Z6	X7	Y7	Z7	X8	Y8	Z8	X9	Y9	Z9	X10	Y10	Z10	X11	Y11	Z11	X12	Y12	Z12	X13	Y13	Z13	X14	Y14	Z14	X15	Y15	Z15	X16	Y16	Z16	X17	Y17	Z17	X18	Y18	Z18	X19	Y19	Z19	X20	Y20	Z20	X21	Y21	Z21	X22	Y22	Z22	X23	Y23	Z23	X24	Y24	Z24	X25	Y25	Z25	X26	Y26	Z26	X27	Y27	Z27	X28	Y28	Z28	X29	Y29	Z29	X30	Y30	Z30	X31	Y31	Z31	X32	Y32	Z32	X33	Y33	Z33	X34	Y34	Z34	X35	Y35	Z35	X36	Y36	Z36	X37	Y37	Z37	X38	Y38	Z38	X39	Y39	Z39	X40	Y40	Z40	X41	Y41	Z41	X42	Y42	Z42	X43	Y43	Z43	X44	Y44	Z44	X45	Y45	Z45	X46	Y46	Z46	X47	Y47	Z47	X48	Y48	Z48	X49	Y49	Z49	X50	Y50	Z50	X51	Y51	Z51	X52	Y52	Z52	X53	Y53	Z53	

1	0	341.8785705566406	1072.008544921875	974.1257934570312	360.7793273925781	1061.836791992188	1137.654907226562	361.2145080566406	1121.703125	1065.3408203125	152.4149322509766	1320.140991210938	1078.916015625	396.9165954589844	1264.557739257812	1070.038208007812	357.4119567871094	1533.9326171875	1086.740478515625	196.6672515869141	1445.529541015625	1083.2646484375	404.3961486816406	1396.248046875	1003.618591308594	376.919677734375	1490.711547851562	1182.689819335938	276.9454040527344	1499.218505859375	1258.9794921875	309.2085266113281	1373.816772460938	1335.6904296875	310.9421997070312	1156.572875976562	1360.12890625	362.9274291992188	1144.9619140625	1268.634521484375	220.8484802246094	903.5646362304688	1303.2587890625	297.6285705566406	889.41943359375	1346.033935546875	296.8854064941406	1040.408569335938	1366.594360351562	196.2655792236328	717.9547729492188	1282.052734375	264.6091003417969	799.3750610351562	1343.8251953125	200.1055450439453	809.16748046875	1314.2431640625	278.411376953125	1522.946533203125	913.1278076171875	291.2385559082031	1454.52734375	840.9434204101562	329.6725769042969	1186.833129882812	810.701171875	327.2378845214844	1157.614501953125	906.2564086914062	194.7451324462891	928.3751831054688	832.2658081054688	260.4724731445312	914.1449584960938	769.5689086914062	316.1063842773438	1111.0146484375	792.9300537109375	174.8775024414062	741.165771484375	844.3544921875	160.57568359375	819.7030029296875	817.0604858398438	217.6860809326172	813.7678833007812	768.3174438476562	301.1124267578125	1722.897216796875	1149.731201171875	132.5901641845703	1728.2646484375	1011.11474609375	124.1585464477539	1733.92919921875	1109.398681640625	306.6316528320312	1712.155395507812	1006.048400878906	272.916748046875	959.9043579101562	1252.285766601562	218.6572723388672	958.3887329101562	886.5173950195312	122.1431274414062	993.5744018554688	967.4092407226562	150.841552734375	1007.862060546875	1201.550048828125	238.3182678222656	515.97705078125	1210.842163085938	259.8040161132812	654.3233032226562	1244.675903320312	341.4967041015625	41.26243591308594	1212.645141601562	322.7900390625	288.638916015625	1229.390991210938	119.0654754638672	41.1273193359375	1155.142822265625	178.0614624023438	49.01560211181641	1136.884887695312	218.1526641845703	37.69619369506836	1237.282958984375	408.7823181152344	47.97735977172852	1158.378662109375	229.3838958740234	522.3103637695312	932.1915893554688	202.1513671875	791.700439453125	889.7132568359375	345.945068359375	45.82802200317383	951.1140747070312	258.7677917480469	402.150634765625	931.0623168945312	111.5862503051758	42.27264404296875	984.4317626953125	173.9414367675781	46.07568359375	1016.604675292969	197.9308166503906	42.08620834350586	924.1577758789062	399.8204345703125	45.64125442504883	997.8375244140625	
2	0.01	341.8192443847656	1072.02490234375	974.085205078125	360.7486267089844	1061.865234375	1137.598022460938	361.1526489257812	1121.727661132812	1065.299194335938	152.2800598144531	1320.082397460938	1078.843872070312	396.8535461425781	1264.597290039062	1069.996215820312	357.2764587402344	1533.962646484375	1086.704711914062	196.5620574951172	1445.515258789062	1083.216552734375	404.3199462890625	1396.283081054688	1003.578552246094	376.7793884277344	1490.740234375	1182.673706054688	276.7849426269531	1499.229370117188	1258.906494140625	309.1455078125	1373.838500976562	1335.660034179688	310.8711242675781	1156.59765625	1360.100708007812	362.8849182128906	1144.999267578125	1268.607543945312	220.8443908691406	903.5762329101562	1303.216186523438	297.6495361328125	889.43212890625	1345.99267578125	296.8729858398438	1040.432006835938	1366.562133789062	196.2934417724609	717.958740234375	1282.00048828125	264.6720886230469	799.404541015625	1343.797119140625	200.141845703125	809.1771240234375	1314.22265625	278.3127746582031	1522.935180664062	913.1025390625	291.1193237304688	1454.532836914062	840.906005859375	329.5811462402344	1186.834228515625	810.6567993164062	327.1541442871094	1157.609619140625	906.196044921875	194.6254730224609	928.3880615234375	832.2390747070312	260.3006286621094	914.1555786132812	769.5216674804688	316.0181274414062	1111.02197265625	792.8865356445312	174.7416229248047	741.1897583007812	844.359375	160.4924774169922	819.7241821289062	817.0855712890625	217.4099426269531	813.7730102539062	768.2592163085938	300.8119506835938	1722.928344726562	1149.708129882812	132.3382873535156	1728.161987304688	1011.037292480469	123.9498748779297	1733.801879882812	1109.35888671875	306.3851013183594	1712.199462890625	1005.988403320312	272.8974609375	959.9060668945312	1252.24755859375	218.5770568847656	958.382568359375	886.4698486328125	122.1175537109375	993.557861328125	967.3903198242188	150.8327331542969	1007.849426269531	1201.526123046875	238.347900390625	515.9749755859375	1210.824462890625	259.8121032714844	654.3226318359375	1244.656005859375	341.4910278320312	41.27734375	1212.627319335938	322.8014831542969	288.6272888183594	1229.335693359375	119.0701065063477	41.12496948242188	1155.14990234375	178.0608062744141	49.01461029052734	1136.885009765625	218.162353515625	37.6881103515625	1237.293090820312	408.7795104980469	47.98205184936523	1158.372924804688	229.4131317138672	522.3328857421875	932.1803588867188	202.1318817138672	791.692626953125	889.67724609375	345.9457092285156	45.82097244262695	951.1183471679688	258.7715148925781	402.1517028808594	931.0376586914062	111.5821990966797	42.27185821533203	984.429443359375	173.9474945068359	46.07646179199219	1016.595520019531	197.9544982910156	42.08792495727539	924.1546020507812	399.8270874023438	45.64070510864258	997.8444213867188	
3	0.02	341.7478332519531	1072.048583984375	974.0347290039062	360.7072143554688	1061.900268554688	1137.529174804688	361.0694274902344	1121.759155273438	1065.246948242188	152.1091003417969	1320.010986328125	1078.7568359375	396.7711791992188	1264.646240234375	1069.946533203125	357.1033325195312	1534.001220703125	1086.664428710938	196.4350433349609	1445.49560546875	1083.162475585938	404.2287902832031	1396.325073242188	1003.531921386719	376.6065063476562	1490.776611328125	1182.6533203125	276.5946960449219	1499.239624023438	1258.825561523438	309.0659484863281	1373.864624023438	1335.623291015625	310.7822265625	1156.62548828125	1360.0693359375	362.8354797363281	1145.041381835938	1268.578247070312	220.8361663818359	903.5883178710938	1303.16064453125	297.67138671875	889.4466552734375	1345.943115234375	296.85595703125	1040.458984375	1366.523315429688	196.3176879882812	717.9675903320312	1281.931640625	264.7305603027344	799.42626953125	1343.765380859375	200.1853637695312	809.1851196289062	1314.195190429688	278.1913757324219	1522.922241210938	913.0755615234375	290.9617919921875	1454.537719726562	840.8635864257812	329.470703125	1186.836303710938	810.606689453125	327.0486450195312	1157.607177734375	906.1262817382812	194.4737854003906	928.4074096679688	832.208740234375	260.0895385742188	914.1688842773438	769.466796875	315.9075927734375	1111.030029296875	792.8375244140625	174.5803375244141	741.2218017578125	844.36669921875	160.3922424316406	819.7510375976562	817.1138305664062	217.1012878417969	813.7861938476562	768.1944580078125	300.4256591796875	1722.9794921875	1149.674194335938	132.0132446289062	1728.027709960938	1010.948791503906	123.6595306396484	1733.6376953125	1109.302368164062	306.0708312988281	1712.251953125	1005.916076660156	272.8718566894531	959.91015625	1252.199584960938	218.4832153320312	958.3751831054688	886.4119873046875	122.0852890014648	993.5355224609375	967.3632202148438	150.8197174072266	1007.832946777344	1201.493286132812	238.3832855224609	515.97265625	1210.802124023438	259.8278503417969	654.3221435546875	1244.632080078125	341.4880065917969	41.29083251953125	1212.614868164062	322.8193054199219	288.6068420410156	1229.269653320312	119.0744934082031	41.12191009521484	1155.158081054688	178.060302734375	49.01475143432617	1136.886352539062	218.1706237792969	37.68052673339844	1237.305297851562	408.7779235839844	47.98805618286133	1158.366943359375	229.4413146972656	522.35693359375	932.1658325195312	202.1077575683594	791.681640625	889.6342163085938	345.9480285644531	45.81375503540039	951.1214599609375	258.7719116210938	402.1524047851562	931.0072631835938	111.5778198242188	42.27146148681641	984.426513671875	173.9531097412109	46.07717895507812	1016.587158203125	197.9831390380859	42.09027481079102	924.1491088867188	399.8306884765625	45.63783264160156	997.8504028320312	
4	0.03	341.6683349609375	1072.079956054688	973.9765014648438	360.6549072265625	1061.940551757812	1137.452758789062	360.9654846191406	1121.796875	1065.185791015625	151.9119567871094	1319.933715820312	1078.662475585938	396.6698913574219	1264.70263671875	1069.893188476562	356.8989562988281	1534.047119140625	1086.623779296875	196.293701171875	1445.470458984375	1083.107177734375	404.1271362304688	1396.37255859375	1003.482421875	376.409912109375	1490.819091796875	1182.629516601562	276.3869934082031	1499.248413085938	1258.74560546875	308.9723205566406	1373.8935546875	1335.582885742188	310.67919921875	1156.654052734375	1360.037963867188	362.7822265625	1145.085083007812	1268.549682617188	220.8232574462891	903.6001586914062	1303.0947265625	297.6910400390625	889.4614868164062	1345.88818359375	296.8346862792969	1040.487548828125	1366.480346679688	196.3352966308594	717.9810180664062	1281.848754882812	264.7744750976562	799.4353637695312	1343.732421875	200.2331848144531	809.1898803710938	1314.161010742188	278.052001953125	1522.909912109375	913.05029296875	290.7702026367188	1454.54248046875	840.8201293945312	329.3473815917969	1186.841064453125	810.5552978515625	326.9241943359375	1157.609375	906.0531616210938	194.29736328125	928.4339599609375	832.1774291992188	259.8520202636719	914.184814453125	769.4085693359375	315.7807006835938	1111.03857421875	792.787353515625	174.403076171875	741.2611694335938	844.3764038085938	160.2766723632812	819.782470703125	817.1400756835938	216.7880249023438	813.8101806640625	768.12939453125	299.9690856933594	1723.053100585938	1149.629272460938	131.6258239746094	1727.865112304688	1010.8564453125	123.2877044677734	1733.444946289062	1109.23095703125	305.7002258300781	1712.309814453125	1005.837097167969	272.8399658203125	959.9170532226562	1252.144165039062	218.3822021484375	958.3675537109375	886.3474731445312	122.0472259521484	993.5078735351562	967.3281860351562	150.8026580810547	1007.813232421875	1201.45263671875	238.4212036132812	515.9701538085938	1210.775756835938	259.8521728515625	654.3218383789062	1244.605590820312	341.4885864257812	41.30142211914062	1212.610595703125	322.8439636230469	288.5792846679688	1229.19873046875	119.0776672363281	41.11797332763672	1155.1669921875	178.0594940185547	49.0155143737793	1136.88916015625	218.1766052246094	37.67449569702148	1237.31884765625	408.7775573730469	47.99520492553711	1158.361572265625	229.4623260498047	522.3779907226562	932.1465454101562	202.0787200927734	791.667236328125	889.5865478515625	345.9517211914062	45.8073616027832	951.1226806640625	258.7676391601562	402.1524047851562	930.9727172851562	111.5736541748047	42.27151489257812	984.4234619140625	173.9575653076172	46.07766723632812	1016.580688476562	198.0124664306641	42.09241104125977	924.1410522460938	399.830322265625	45.63316345214844	997.8541870117188	
